#!OML:ASF I:\Actors\actors\Patient Classification 1\Patient 1\Session 1\Subject1.ASF
:FULLY-SPECIFIED
:DEGREES
1654
root 0.770331 17.4462 8.65951 3.79637 -1.65369 -8.59762
lowerback -4.42843 1.53836 5.83937
upperback -11.3797 2.24415 1.35153
thorax -9.44948 0.670867 -1.89163
lowerneck -10.4778 -4.67735 -2.64866
upperneck 26.9292 -8.09705 6.7999
head 10.7751 -3.22785 1.87921
rclavicle 9.34288e-015 -2.82274e-014
rhumerus 25.5048 48.6261 -65.5209
rradius 119.024
rwrist 36.2377
rhand -34.2583 -41.4766
rfingers 7.12502
rthumb -7.42888 288.674
lclavicle 9.34288e-015 -2.82274e-014
lhumerus -5.90854 -50.4869 84.6415
lradius 117.895
lwrist -30.1947
lhand -55.7136 295.089
lfingers 7.12502
lthumb -28.0625 -36.9895
rfemur -0.118135 21.4201 26.5599
rtibia 4.38563
rfoot -12.1881 -24.1037
rtoes 1.26446
lfemur 10.5139 -41.1975 -14.6603
ltibia -4.559
lfoot -15.73 47.4189
ltoes 1.73596
1655
root 0.773892 17.4414 8.66144 3.5784 -1.80679 -8.52502
lowerback -4.61279 1.75858 5.89749
upperback -11.3563 2.50705 1.10957
thorax -9.28204 0.788105 -2.18347
lowerneck -10.184 -4.81624 -2.23489
upperneck 26.9913 -8.3102 6.50742
head 10.7202 -3.32393 1.68401
rclavicle -3.18055e-015 -1.59028e-015
rhumerus 23.0606 49.1124 -66.8773
rradius 119.39
rwrist 36.7712
rhand -34.8264 -39.976
rfingers 7.12502
rthumb -7.97724 290.195
lclavicle -3.18055e-015 -1.59028e-015
lhumerus -8.13523 -51.3612 85.7831
lradius 117.675
lwrist -31.0262
lhand -55.2732 291.599
lfingers 7.12502
lthumb -27.6415 -40.4121
rfemur -0.0399 21.2553 26.5074
rtibia 4.66304
rfoot -12.2732 -23.8243
rtoes 0.959918
lfemur 10.8245 -40.9563 -14.9634
ltibia -4.5147
lfoot -15.9797 47.278
ltoes 2.03169
1656
root 0.778401 17.4371 8.66258 3.3568 -1.88964 -8.46531
lowerback -4.75713 1.81023 5.92753
upperback -11.2882 2.55758 1.05739
thorax -9.11262 0.813934 -2.25129
lowerneck -10.1115 -4.88791 -2.3168
upperneck 27.1907 -8.40027 6.45352
head 10.7864 -3.37686 1.6696
rclavicle -7.95139e-016 -1.63003e-014
rhumerus 20.6807 49.9532 -68.2276
rradius 119.528
rwrist 37.0578
rhand -35.579 -38.0944
rfingers 7.12502
rthumb -8.7035 292.105
lclavicle -7.95139e-016 -1.63003e-014
lhumerus -10.6536 -51.7499 87.0645
lradius 117.389
lwrist -32.4652
lhand -54.9536 289.062
lfingers 7.12502
lthumb -27.3357 -42.8998
rfemur 0.0554252 21.0842 26.4682
rtibia 4.90674
rfoot -12.3521 -23.5887
rtoes 0.792903
lfemur 11.0132 -40.5689 -15.1523
ltibia -4.42809
lfoot -15.9227 46.9425
ltoes 1.86604
1657
root 0.781988 17.435 8.66195 3.19294 -1.98991 -8.44389
lowerback -4.9795 1.75679 5.90993
upperback -11.1779 2.46938 1.17228
thorax -8.87014 0.786755 -2.10885
lowerneck -10.0449 -4.83902 -2.6118
upperneck 27.2695 -8.29833 6.53598
head 10.8137 -3.35079 1.76444
rclavicle 6.36111e-015 1.23246e-014
rhumerus 17.8315 50.9426 -69.9651
rradius 119.169
rwrist 37.7583
rhand -36.6672 -35.7674
rfingers 7.12502
rthumb -9.75355 294.478
lclavicle 6.36111e-015 1.23246e-014
lhumerus -13.3038 -51.7046 88.4182
lradius 116.992
lwrist -34.3025
lhand -54.826 286.718
lfingers 7.12502
lthumb -27.2138 -45.2248
rfemur 0.0661955 20.9298 26.452
rtibia 5.17394
rfoot -12.4037 -23.3575
rtoes 0.637768
lfemur 11.1008 -40.1559 -15.2099
ltibia -4.35616
lfoot -15.6855 46.6354
ltoes 1.38799
1658
root 0.78438 17.4331 8.66055 3.03839 -2.10781 -8.39299
lowerback -5.24195 1.78296 5.85666
upperback -11.0535 2.47777 1.19389
thorax -8.57776 0.80711 -2.04676
lowerneck -9.87009 -4.86598 -2.71762
upperneck 27.2309 -8.31884 6.55639
head 10.7712 -3.37455 1.79118
rclavicle -2.78299e-015 3.57812e-015
rhumerus 15.3041 51.7484 -71.4023
rradius 119.017
rwrist 38.9164
rhand -37.3858 -33.3502
rfingers 7.12502
rthumb -10.4468 296.929
lclavicle -2.78299e-015 3.57812e-015
lhumerus -15.9673 -51.7861 89.8109
lradius 116.529
lwrist -36.0819
lhand -54.5479 284.662
lfingers 7.12502
lthumb -26.9477 -47.2397
rfemur 0.0766129 20.8251 26.4121
rtibia 5.43442
rfoot -12.482 -23.1971
rtoes 0.248301
lfemur 11.2465 -39.8893 -15.3526
ltibia -4.32523
lfoot -15.6702 46.498
ltoes 1.33934
